# AST/ASF file generated using VICON BodyLanguage
# -----------------------------------------------
:version 1.10
:name VICON
:units
  mass 1.0
  length 0.45
  angle deg
:documentation
   .ast/.asf automatically generated from VICON data using
   VICON BodyBuilder and BodyLanguage model FoxedUp or BRILLIANT.MOD
:root
   order TX TY TZ RX RY RZ
   axis XYZ
   position 0 0 0  
   orientation 0 -0 0 
:bonedata
  begin
     id 1 
     name lhipjoint
     direction 0.432694 -0.693742 0.575759 
     length 2.19277 
     axis 0 -0 0  XYZ
  end
  begin
     id 2 
     name lfemur
     direction 0.34202 -0.939693 0  
     length 6.69022  
     axis 0 -0 20  XYZ
    dof rx ry rz
    limits (-160.0 20.0)
           (-70.0 70.0)
           (-60.0 70.0)
  end
  begin
     id 3 
     name ltibia
     direction 0.34202 -0.939693 0   
     length 6.50337   
     axis 0 -0 20   XYZ
    dof rx
    limits (-10.0 170.0)
  end
  begin
     id 4 
     name lfoot
     direction 0.158999 -0.435969 0.885805   
     length 2.70564   
     axis -90 -1.13533e-015 20   XYZ
    dof rx rz
    limits (-45.0 90.0)
           (-70.0 20.0)
  end
  begin
     id 5 
     name ltoes
     direction -0.00592919 0.00964381 0.999936   
     length 1.29929   
     axis -90 -1.13533e-015 20   XYZ
    dof rx
    limits (-90.0 20.0)
  end
  begin
     id 6 
     name rhipjoint
     direction -0.414359 -0.700339 0.581234   
     length 2.17212  
     axis 0 -0 0  XYZ 
  end
  begin
     id 7 
     name rfemur
     direction -0.34202 -0.939693 0   
     length 7.17659   
     axis 0 -0 -20   XYZ
    dof rx ry rz
    limits (-160.0 20.0)
           (-70.0 70.0)
           (-70.0 60.0)
  end
  begin
     id 8 
     name rtibia
     direction -0.34202 -0.939693 0   
     length 6.36669   
     axis 0 -0 -20   XYZ
    dof rx
    limits (-10.0 170.0)
 end
 begin
     id 9 
     name rfoot
     direction -0.137064 -0.37658 0.916188   
     length 2.22351  
     axis -90 1.13533e-015 -20   XYZ
    dof rx rz
    limits (-45.0 90.0)
           (-20.0 70.0)
  end
  begin
     id 10 
     name rtoes
     direction -0.000784077 -0.00289101 0.999996   
     length 1.09522   
     axis -90 1.13533e-015 -20   XYZ
    dof rx
    limits (-90.0 20.0)
  end
  begin
     id 11 
     name lowerback
     direction -0.0176242 0.984912 -0.172157   
     length 1.65301   
     axis 0 -0 0   XYZ
    dof rx ry rz
    limits (-20.0 45.0)
           (-30.0 30.0)
           (-30.0 30.0)
  end
  begin
     id 12 
     name upperback
     direction -0.00218128 0.998776 -0.0494072   
     length 1.67776   
     axis 0 -0 0   XYZ
    dof rx ry rz
    limits (-20.0 45.0)
           (-30.0 30.0)
           (-30.0 30.0)
  end
  begin
     id 13 
     name thorax
     direction 0.00544186 0.999658 0.0255711   
     length 1.72293   
     axis 0 -0 0   XYZ
    dof rx ry rz
    limits (-20.0 45.0)
           (-30.0 30.0)
           (-30.0 30.0)
  end
  begin
     id 14 
     name lowerneck
     direction -0.105325 0.983841 0.144785   
     length 2.14226   
     axis 0 -0 0   XYZ
    dof rx ry rz
    limits (-20.0 45.0)
           (-30.0 30.0)
           (-30.0 30.0)
  end
  begin
     id 15 
     name upperneck
     direction 0.0547957 0.988053 -0.144041   
     length 2.17508   
     axis 0 -0 0   XYZ
    dof rx ry rz
    limits (-20.0 45.0)
           (-30.0 30.0)
           (-30.0 30.0)
  end
  begin
     id 16
     name head
     direction 0.0247488 0.997534 -0.0656813  
     length 2.20048  
     axis 0 -0 0   XYZ
    dof rx ry rz
    limits (-20.0 45.0)
           (-30.0 30.0)
           (-30.0 30.0)
  end
  begin
     id 17 
     name lclavicle
     direction 0.820559 0.567247 -0.0701026  
     length 4.09615  
     axis 0 -0 0   XYZ
    dof ry rz
    limits (-20.0 10.0)
           (0.0 20.0)
  end
  begin
     id 18 
     name lhumerus
     direction 0.999977 -0.0067566 -9.96392e-005   
     length 4.59333   
     axis -180 -30 -90   XYZ
    dof rx ry rz
    limits (-60.0 90.0)
           (-90.0 90.0)
           (-90.0 90.0)
  end
  begin
     id 19
     name lradius
     direction 1 -4.48982e-011 -2.53425e-027   
     length 2.81151   
     axis -180 -30 -90   XYZ
    dof rx
    limits (-10.0 170.0)
  end
  begin
     id 20
     name lwrist
     direction 1 -4.48939e-011 -7.39254e-028   
     length 1.40576   
     axis 2.56395e-016 90 90   XYZ
    dof ry
    limits (-180.0 0.0)
 end
  begin
     id 21 
     name lhand
     direction 1 -4.48939e-011 -1.47851e-027   
     length 0.895651   
     axis 9.43423e-016 90 90   XYZ
    dof rx rz
    limits (-90.0 90.0)
           (-45.0 45.0)
  end
  begin
     id 22 
     name lfingers
     direction 1 -4.48978e-011 -2.95702e-027   
     length 0.722097   
     axis 1.88685e-015 90 90   XYZ
    dof rx
    limits (0.0 90.0)
  end
  begin
     id 23
     name lthumb
     direction 0.707107 -6.34931e-011 0.707107   
     length 1.03679   
     axis -90 45 -9.86935e-015   XYZ
    dof rx rz
    limits (-45.0 45.0)
           (-45.0 45.0)
  end
  begin
     id 24 
     name rclavicle
     direction -0.831414 0.553102 -0.0531864   
     length 4.24872  
     axis 0 -0 0   XYZ 
    dof ry rz
    limits (-10.0 20.0)
           (-20.0 0.0)
  end
  begin
     id 25 
     name rhumerus
     direction -0.999916 -0.000939607 0.0129331  
     length 4.74834   
     axis -180 30 90   XYZ
    dof rx ry rz
    limits (-90.0 60.0)
           (-90.0 90.0)
           (-90.0 90.0)
  end
  begin
     id 26 
     name rradius
     direction -1 -4.48956e-011 -1.31752e-027   
     length 2.79907   
     axis -180 30 90   XYZ
    dof rx
    limits (-10.0 170.0)
  end
  begin
     id 27 
     name rwrist
     direction -1 -4.4897e-011 -7.39254e-028   
     length 1.39954   
     axis 2.56395e-016 -90 -90   XYZ
    dof ry
    limits (-180.0 0.0)
  end
  begin
     id 28
     name rhand
     direction -0.999997 -0.00250697 0.000800838   
     length 0.953304   
     axis 9.43423e-016 -90 -90   XYZ
    dof rx rz
    limits (-90.0 90.0)
           (-45.0 45.0)
  end
  begin
     id 29
     name rfingers
     direction -1 -4.48954e-011 -2.95702e-027   
     length 0.763342   
     axis 1.88685e-015 -90 -90   XYZ
    dof rx
    limits (0.0 90.0)
  end
  begin
     id 30
     name rthumb
     direction -0.709701 -0.00217037 0.7045   
     length 1.10115   
     axis -90 -45 9.86935e-015   XYZ
    dof rx rz
    limits (-45.0 45.0)
           (-45.0 45.0)
  end
:hierarchy
  begin
    root lhipjoint rhipjoint lowerback
    lhipjoint lfemur
    lfemur ltibia
    ltibia lfoot
    lfoot ltoes
    rhipjoint rfemur
    rfemur rtibia
    rtibia rfoot
    rfoot rtoes
    lowerback upperback
    upperback thorax
    thorax lowerneck lclavicle rclavicle
    lowerneck upperneck
    upperneck head
    lclavicle lhumerus
    lhumerus lradius
    lradius lwrist
    lwrist lhand lthumb
    lhand lfingers
    rclavicle rhumerus
    rhumerus rradius
    rradius rwrist
    rwrist rhand rthumb
    rhand rfingers
  end

#!OML:ASF G:\ViconDB\ViconDB\414\test\team2\shane.ASF
:FULLY-SPECIFIED
:DEGREES
82
root -1.14946 14.3521 -31.6749 54.2421 15.207 -37.488
lowerback 32.8743 5.57385 -15.3887
upperback 9.38946 1.26897 -6.34347
thorax -6.12626 0.530882 0.754775
lowerneck -29.0604 -4.64076 -12.0613
upperneck 20.0636 -0.820023 -1.34895
head 11.4156 -1.50366 1.26541
rclavicle 6.67916e-014 6.36111e-015
rhumerus 86.6647 -4.13954 -48.1814
rradius 26.4668
rwrist 45.5339
rhand -38.4755 -15.8203
rfingers 7.12502
rthumb -11.4978 -45.485
lclavicle 9.54166e-015 2.54444e-014
lhumerus 46.7781 5.36264 4.6909
lradius 27.1715
lwrist 20.3445
lhand -50.5795 25.5502
lfingers 7.12502
lthumb -23.1452 54.1798
rfemur -1.9635 -26.8793 15.9986
rtibia 40.9405
rfoot -2.62065 17.2309
rtoes -23.4738
lfemur -83.439 10.4326 11.5015
ltibia 82.7308
lfoot -50.5846 6.955
ltoes -9.31115
83
root -0.970008 14.3768 -31.3287 55.2547 16.6377 -39.3935
lowerback 33.1512 5.45859 -14.9253
upperback 9.11175 1.16067 -6.42851
thorax -6.54352 0.509064 0.46277
lowerneck -29.6472 -4.4513 -12.0604
upperneck 19.9024 -0.467344 -1.39071
head 11.4354 -1.35002 1.30635
rclavicle 6.67916e-014 -1.76521e-013
rhumerus 87.3957 -6.1758 -46.7125
rradius 26.7117
rwrist 44.7454
rhand -39.7119 -16.4284
rfingers 7.12502
rthumb -12.69 -46.0228
lclavicle 6.67916e-014 -1.76521e-013
lhumerus 68.4685 23.6883 44.6718
lradius 9.16013
lwrist -23.9498
lhand -54.2161 19.1237
lfingers 7.12502
lthumb -26.6302 47.2708
rfemur -0.198937 -25.4182 13.8614
rtibia 41.028
rfoot -1.54158 18.2637
rtoes -21.7417
lfemur -82.0983 10.3343 14.4257
ltibia 81.2821
lfoot -50.7986 8.26144
ltoes -10.2633
84
root -0.783684 14.4232 -30.9751 56.3148 18.2773 -41.229
lowerback 33.1885 5.20843 -14.3886
upperback 8.9573 0.988136 -6.50465
thorax -6.73328 0.442907 0.180446
lowerneck -30.284 -4.45012 -11.9064
upperneck 19.9177 -0.394583 -1.51437
head 11.5459 -1.32794 1.24189
rclavicle 4.13472e-014 -3.97569e-014
rhumerus 88.3992 -8.16947 -46.5299
rradius 26.7101
rwrist 45.7498
rhand -40.4979 -17.9575
rfingers 7.12502
rthumb -13.4477 -47.5034
lclavicle 4.13472e-014 -3.97569e-014
lhumerus 68.8933 23.567 43.8888
lradius 9.60058
lwrist -23.0237
lhand -58.1043 25.2066
lfingers 7.12502
lthumb -30.3453 52.7308
rfemur 1.56131 -23.9609 12.0087
rtibia 40.7399
rfoot -0.699575 18.1175
rtoes -23.0952
lfemur -80.7324 10.0942 17.5865
ltibia 79.5734
lfoot -50.9072 8.50145
ltoes -10.501
85
root -0.604383 14.4846 -30.6168 57.4163 20.2393 -42.8664
lowerback 33.1598 4.89742 -13.9136
upperback 8.81861 0.762091 -6.44655
thorax -6.87671 0.350045 0.0918005
lowerneck -30.9102 -4.26074 -11.6962
upperneck 19.6284 -0.0977419 -1.69538
head 11.5239 -1.19699 1.1887
rclavicle 1.39944e-013 2.54444e-014
rhumerus 89.5464 -10.0582 -47.0859
rradius 26.5883
rwrist 46.7688
rhand -41.2623 -19.1231
rfingers 7.12502
rthumb -14.1844 -48.6188
lclavicle 1.39944e-013 2.54444e-014
lhumerus 69.0069 23.7302 42.9171
lradius 10.4776
lwrist -20.6747
lhand -63.0855 32.3493
lfingers 7.12502
lthumb -35.0841 58.8857
rfemur 3.47329 -22.6383 10.5013
rtibia 40.1492
rfoot 0.298477 16.9833
rtoes -22.2269
lfemur -79.2989 9.59453 20.8227
ltibia 77.4381
lfoot -50.5601 10.5856
ltoes -11.6051
86
root -0.424698 14.5653 -30.2418 58.3883 22.1073 -44.533
lowerback 33.1272 4.75001 -13.8692
upperback 8.69498 0.604199 -6.33698
thorax -6.99164 0.285087 0.242927
lowerneck -31.3505 -4.21261 -11.8962
upperneck 19.1755 -0.00347543 -1.31657
head 11.4136 -1.1017 1.37547
rclavicle -1.08139e-013 8.26944e-014
rhumerus 90.9899 -11.7383 -48.5386
rradius 26.4316
rwrist 47.5771
rhand -41.9531 -19.8141
rfingers 7.12502
rthumb -14.85 -49.2619
lclavicle -1.08139e-013 8.26944e-014
lhumerus 67.3348 23.5815 38.1481
lradius 12.5374
lwrist -14.8866
lhand -66.5153 41.1685
lfingers 7.12502
lthumb -38.3296 66.8773
rfemur 5.22941 -21.2197 9.05651
rtibia 39.9847
rfoot 0.766169 15.4321
rtoes -22.1893
lfemur -77.5197 8.90614 24.2625
ltibia 75.2566
lfoot -50.3234 11.6239
ltoes -12.4661
87
root -0.243446 14.6637 -29.863 59.4707 24.367 -46.0206
lowerback 33.0472 4.49803 -13.5577
upperback 8.51668 0.410452 -6.2537
thorax -7.15651 0.210873 0.249012
lowerneck -31.2903 -4.25305 -11.7844
upperneck 18.8232 -0.0997262 -1.43803
head 11.2728 -1.13492 1.29506
rclavicle -5.725e-014 -2.54444e-014
rhumerus 92.3988 -13.0921 -51.1982
rradius 26.1241
rwrist 48.9839
rhand -42.6371 -21.2259
rfingers 7.12502
rthumb -15.5089 -50.6239
lclavicle -5.725e-014 -2.54444e-014
lhumerus 68.6574 24.9092 41.0192
lradius 14.8426
lwrist -17.127
lhand -69.2776 48.6487
lfingers 7.12502
lthumb -40.9307 73.587
rfemur 6.87253 -19.8897 8.12972
rtibia 39.7227
rfoot 1.53754 13.8272
rtoes -22.5182
lfemur -76.0233 7.92601 27.8809
ltibia 72.7803
lfoot -49.6951 13.4743
ltoes -13.4009
88
root -0.153908 14.6975 -29.6457 60.3362 26.4518 -47.6578
lowerback 32.8269 4.3826 -13.5142
upperback 8.37668 0.314129 -6.25254
thorax -7.22291 0.175081 0.269057
lowerneck -31.917 -4.0053 -11.2957
upperneck 18.5317 0.00112894 -1.0991
head 11.2482 -1.00009 1.36138
rclavicle 4.45278e-014 -7.95139e-014
rhumerus 93.696 -14.2668 -53.6995
rradius 26.0671
rwrist 48.3084
rhand -42.7027 -21.8182
rfingers 7.12502
rthumb -15.5721 -51.2113
lclavicle 4.45278e-014 -7.95139e-014
lhumerus 68.8291 26.1754 42.3179
lradius 18.3249
lwrist -19.0169
lhand -69.7082 51.3666
lfingers 7.12502
lthumb -41.335 76.1755
rfemur 8.52809 -18.1639 6.6845
rtibia 39.9716
rfoot 1.96232 12.8031
rtoes -21.0474
lfemur -75.0571 6.91483 32.2474
ltibia 70.7314
lfoot -48.4008 15.4305
ltoes -14.0773
89
root 0.00728602 14.8227 -29.2607 61.1514 28.5649 -49.2453
lowerback 32.3282 4.35029 -13.4946
upperback 8.28744 0.361432 -6.29344
thorax -7.13655 0.195644 0.215191
lowerneck -32.0119 -3.91246 -10.7573
upperneck 18.3 -0.107549 -1.12406
head 11.1749 -1.0029 1.249
rclavicle -1.39944e-013 5.725e-014
rhumerus 94.8428 -15.3955 -56.0352
rradius 25.9042
rwrist 47.2946
rhand -42.8833 -23.3957
rfingers 7.12502
rthumb -15.7459 -52.7752
lclavicle -1.39944e-013 5.725e-014
lhumerus 68.5294 26.7463 40.7516
lradius 20.7894
lwrist -18.8709
lhand -69.3354 46.9425
lfingers 7.12502
lthumb -40.985 71.8637
rfemur 9.99001 -16.5135 5.94482
rtibia 40.0915
rfoot 2.28014 11.9929
rtoes -19.753
lfemur -73.1727 5.97425 35.8333
ltibia 68.1323
lfoot -47.4404 17.2746
ltoes -14.7987
90
root 0.153698 14.9524 -28.8881 61.9965 31.0727 -50.7579
lowerback 31.5091 4.16948 -12.8476
upperback 8.24968 0.477358 -6.39249
thorax -7.01333 0.242379 -0.161918
lowerneck -31.7834 -3.76144 -10.7119
upperneck 18.3944 -0.0147726 -0.893229
head 11.1658 -0.928493 1.34858
rclavicle 1.27222e-013 6.67916e-014
rhumerus 95.7515 -16.4754 -58.5325
rradius 25.5934
rwrist 46.1444
rhand -43.1863 -24.5021
rfingers 7.12502
rthumb -16.0378 -53.8584
lclavicle 1.27222e-013 6.67916e-014
lhumerus 68.5588 26.7747 39.3972
lradius 22.2855
lwrist -19.5159
lhand -69.0423 43.7674
lfingers 7.12502
lthumb -40.7096 68.7753
rfemur 11.3524 -15.333 5.65355
rtibia 40.5761
rfoot 2.05565 11.0814
rtoes -19.0781
lfemur -71.3221 4.76554 39.8835
ltibia 65.4939
lfoot -46.1929 19.8924
ltoes -16.4849
91
root 0.289144 15.0903 -28.4953 62.8557 33.3483 -52.1619
lowerback 30.3737 4.25144 -12.5421
upperback 8.14891 0.844509 -6.46971
thorax -6.71333 0.398149 -0.479427
lowerneck -31.093 -3.90226 -10.5943
upperneck 18.2224 -0.469683 -0.48615
head 11.0041 -1.05677 1.40675
rclavicle 1.24042e-013 -3.18055e-015
rhumerus 96.3769 -17.4927 -61.1833
rradius 25.3001
rwrist 46.2763
rhand -43.1572 -26.345
rfingers 7.12502
rthumb -16.0097 -55.7035
lclavicle 1.24042e-013 -3.18055e-015
lhumerus 67.1539 25.884 35.572
lradius 24.2295
lwrist -18.4341
lhand -68.9566 45.9047
lfingers 7.12502
lthumb -40.6291 70.9379
rfemur 12.7532 -14.1655 5.2527
rtibia 40.8088
rfoot 2.18116 9.73955
rtoes -18.1264
lfemur -69.4561 3.40671 44.2124
ltibia 63.0685
lfoot -45.3897 20.4894
ltoes -16.2535
92
root 0.416669 15.2105 -28.1176 63.6204 35.5449 -53.0327
lowerback 29.2111 4.2795 -12.2691
upperback 8.50499 1.17353 -6.55607
thorax -6.48208 0.511131 -0.757251
lowerneck -30.6843 -4.12562 -10.4455
upperneck 18.3763 -0.925002 -0.332498
head 11.016 -1.23221 1.36376
rclavicle 6.83819e-014 4.77083e-014
rhumerus 96.9509 -18.384 -63.7391
rradius 24.9917
rwrist 46.9386
rhand -43.523 -28.0937
rfingers 7.12502
rthumb -16.362 -57.4235
lclavicle 6.83819e-014 4.77083e-014
lhumerus 64.5013 24.4498 28.7037
lradius 26.1631
lwrist -13.8852
lhand -69.2763 49.6553
lfingers 7.12502
lthumb -40.9294 74.594
rfemur 14.4308 -13.4188 4.37061
rtibia 41.5181
rfoot 2.11884 8.00404
rtoes -16.1478
lfemur -67.8703 1.7296 47.6579
ltibia 61.0692
lfoot -42.2418 21.2769
ltoes -15.2176
93
root 0.533349 15.3085 -27.7662 64.1118 37.7333 -54.1469
lowerback 28.1712 4.42029 -12.0452
upperback 8.49532 1.5856 -6.53058
thorax -6.02757 0.684057 -0.944259
lowerneck -30.5638 -4.36174 -10.4894
upperneck 18.6173 -1.27819 -0.148341
head 11.1063 -1.37588 1.37761
rclavicle -4.77083e-015 9.54166e-014
rhumerus 96.7946 -19.2541 -65.3022
rradius 25.1626
rwrist 47.3952
rhand -44.2617 -29.2422
rfingers 7.12502
rthumb -17.0731 -58.512
lclavicle -4.77083e-015 9.54166e-014
lhumerus 62.468 23.2588 22.8178
lradius 27.704
lwrist -9.78278
lhand -69.5874 53.4004
lfingers 7.12502
lthumb -41.2216 78.246
rfemur 15.9996 -12.5564 3.4615
rtibia 42.5988
rfoot 2.08171 6.14098
rtoes -15.0377
lfemur -66.256 1.5053 49.6478
ltibia 60.0261
lfoot -37.2645 19.4594
ltoes -11.2452
94
root 0.645093 15.3904 -27.462 64.7611 40.3084 -55.0063
lowerback 27.0746 4.26623 -11.3986
upperback 8.49226 1.78154 -6.30877
thorax -5.51975 0.763154 -1.06038
lowerneck -30.5804 -4.5258 -10.609
upperneck 18.7906 -1.46633 -0.0342498
head 11.1873 -1.4585 1.40494
rclavicle -1.1609e-013 4.77083e-014
rhumerus 96.3667 -19.887 -65.8601
rradius 25.4357
rwrist 47.0151
rhand -44.7044 -29.5019
rfingers 7.12502
rthumb -17.4992 -58.7343
lclavicle -1.1609e-013 4.77083e-014
lhumerus 62.4755 22.7572 21.011
lradius 27.7013
lwrist -8.72568
lhand -70.3251 55.5121
lfingers 7.12502
lthumb -41.9136 80.131
rfemur 17.3838 -12.1266 2.65661
rtibia 44.0155
rfoot 2.09223 4.32979
rtoes -13.4042
lfemur -65.2007 3.45159 49.4708
ltibia 59.9894
lfoot -30.0361 15.8031
ltoes -1.64602
